<svg xmlns="http://www.w3.org/2000/svg" width="1920" height="640" viewBox="0 0 1920 640"><defs><linearGradient id="bg" x2="1" y2=".6"><stop stop-color="#102039"/><stop offset="1" stop-color="#183751"/></linearGradient><linearGradient id="card" x2="1" y2="1"><stop stop-color="#2d527c"/><stop offset="1" stop-color="#24476b"/></linearGradient><pattern id="grid" width="40" height="40" patternUnits="userSpaceOnUse"><path d="M40 0H0V40" fill="none" stroke="#416080" stroke-opacity=".55"/></pattern></defs><path fill="url(#bg)" d="M0 0h1920v640H0z"/><path fill="url(#grid)" d="M1110 0h810v640h-810z"/><g transform="translate(1370 100)"><circle cx="180" cy="230" r="220" fill="none" stroke="#365777"/><circle cx="180" cy="230" r="165" fill="none" stroke="#365777"/><g fill="url(#card)" stroke="#567fa7" stroke-width="1.5"><path d="m-20 330 205-105 220 105-220 110z"/><path d="m-20 260 205-105 220 105-220 110z"/><path d="m-20 190 205-105 220 105-220 110z"/></g><path d="m-20 190 205 110 220-110" fill="none" stroke="#80adff" stroke-width="2"/><g fill="#06a3da"><rect x="144" y="151" width="76" height="76" rx="16" transform="rotate(-30 182 189)"/><circle cx="-20" cy="330" r="6"/><circle cx="405" cy="260" r="6"/></g><g fill="none" stroke="#fff" stroke-width="2.5" transform="translate(162 165)"><rect width="40" height="14" rx="3"/><rect y="21" width="40" height="14" rx="3"/><path d="M7 7h2m-2 21h2m10-21h13m-13 21h13"/></g><path d="M185 34v49m0 358v35M-60 190h-45m510 140h49" stroke="#5d87b0" stroke-width="2"/><g fill="#234467" stroke="#7ba6d2"><circle cx="185" cy="30" r="8"/><circle cx="185" cy="480" r="8"/><circle cx="-110" cy="190" r="8"/><circle cx="460" cy="330" r="8"/></g></g></svg>
